<svg xmlns="http://www.w3.org/2000/svg" viewBox="0 0 960 552" width="960" height="552" fill="#1b1f24" font-family="'Segoe UI', system-ui, -apple-system, Roboto, Helvetica, Arial, sans-serif">
<style>.m{font-family:'Cascadia Mono', 'SF Mono', 'Roboto Mono', Menlo, Consolas, monospace;}</style>
<rect x="0" y="0" width="960" height="552" fill="#f1f3f5"/>
<rect x="0.5" y="0.5" width="959" height="551" fill="none" stroke="#d7dbe0" stroke-width="1"/>
<text x="40" y="46" font-size="22" fill="#1b1f24" font-weight="700">Same kind of page, opposite gold</text>
<text x="40" y="70" font-size="13" fill="#565d66">Two shop category pages, each a heading and blurb above a product grid. WCXB kept blurb and grid; WMB kept the blurb and dropped the grid.</text>
<rect x="40" y="102" width="430" height="330" fill="#ffffff" rx="10" stroke="#d7dbe0" stroke-width="1"/>
<circle cx="56" cy="116" r="3.5" fill="#d7dbe0" stroke="none" stroke-width="2"/>
<circle cx="68" cy="116" r="3.5" fill="#d7dbe0" stroke="none" stroke-width="2"/>
<circle cx="80" cy="116" r="3.5" fill="#d7dbe0" stroke="none" stroke-width="2"/>
<rect x="100" y="110" width="354" height="12" fill="#e9ecef" rx="6"/>
<text x="106" y="119" font-size="8.5" fill="#8a9199" class="m">upliftdesk.com/standing-desks</text>
<rect x="56" y="136" width="398" height="22" fill="#e9ecef" rx="4"/>
<rect x="68" y="144" width="36" height="6" fill="#cfd4d9" rx="3"/>
<rect x="124" y="144" width="36" height="6" fill="#cfd4d9" rx="3"/>
<rect x="180" y="144" width="36" height="6" fill="#cfd4d9" rx="3"/>
<rect x="236" y="144" width="36" height="6" fill="#cfd4d9" rx="3"/>
<rect x="292" y="144" width="36" height="6" fill="#cfd4d9" rx="3"/>
<rect x="56" y="172" width="200" height="12" fill="#b9c0c7" rx="3"/>
<rect x="56" y="196" width="390" height="6" fill="#cfd4d9" rx="3"/>
<rect x="56" y="208" width="380" height="6" fill="#cfd4d9" rx="3"/>
<rect x="56" y="220" width="360" height="6" fill="#cfd4d9" rx="3"/>
<rect x="56" y="232" width="220" height="6" fill="#cfd4d9" rx="3"/>
<rect x="56" y="260" width="90" height="44" fill="#e9ecef" rx="4"/>
<rect x="56" y="310" width="60" height="6" fill="#cfd4d9" rx="3"/>
<rect x="122" y="310" width="24" height="6" fill="#b9c0c7" rx="3"/>
<rect x="156" y="260" width="90" height="44" fill="#e9ecef" rx="4"/>
<rect x="156" y="310" width="60" height="6" fill="#cfd4d9" rx="3"/>
<rect x="222" y="310" width="24" height="6" fill="#b9c0c7" rx="3"/>
<rect x="256" y="260" width="90" height="44" fill="#e9ecef" rx="4"/>
<rect x="256" y="310" width="60" height="6" fill="#cfd4d9" rx="3"/>
<rect x="322" y="310" width="24" height="6" fill="#b9c0c7" rx="3"/>
<rect x="356" y="260" width="90" height="44" fill="#e9ecef" rx="4"/>
<rect x="356" y="310" width="60" height="6" fill="#cfd4d9" rx="3"/>
<rect x="422" y="310" width="24" height="6" fill="#b9c0c7" rx="3"/>
<rect x="56" y="334" width="90" height="44" fill="#e9ecef" rx="4"/>
<rect x="56" y="384" width="60" height="6" fill="#cfd4d9" rx="3"/>
<rect x="122" y="384" width="24" height="6" fill="#b9c0c7" rx="3"/>
<rect x="156" y="334" width="90" height="44" fill="#e9ecef" rx="4"/>
<rect x="156" y="384" width="60" height="6" fill="#cfd4d9" rx="3"/>
<rect x="222" y="384" width="24" height="6" fill="#b9c0c7" rx="3"/>
<rect x="256" y="334" width="90" height="44" fill="#e9ecef" rx="4"/>
<rect x="256" y="384" width="60" height="6" fill="#cfd4d9" rx="3"/>
<rect x="322" y="384" width="24" height="6" fill="#b9c0c7" rx="3"/>
<rect x="356" y="334" width="90" height="44" fill="#e9ecef" rx="4"/>
<rect x="356" y="384" width="60" height="6" fill="#cfd4d9" rx="3"/>
<rect x="422" y="384" width="24" height="6" fill="#b9c0c7" rx="3"/>
<rect x="56" y="406" width="398" height="14" fill="#e9ecef" rx="4"/>
<rect x="50" y="166" width="410" height="248" fill="#f7ecd9" rx="6" stroke="#c17d11" stroke-width="2" opacity="0.85"/>
<rect x="368" y="174" width="78.7" height="18" fill="#c17d11" rx="9.0"/>
<text x="407.35" y="186.42" font-size="9.5" fill="#ffffff" text-anchor="middle" font-weight="700">kept as main</text>
<rect x="56" y="442" width="41.1" height="20" fill="#c17d11" rx="10.0"/>
<text x="76.55" y="455.78" font-size="10.5" fill="#ffffff" text-anchor="middle" font-weight="700">WCXB</text>
<text x="128" y="456" font-size="11" fill="#565d66">type: collection</text>
<text x="56" y="478" font-size="10.5" fill="#8a9199" class="m">gold = blurb + all 30 desks with prices; 65 of 178 blocks</text>
<rect x="490" y="102" width="430" height="330" fill="#ffffff" rx="10" stroke="#d7dbe0" stroke-width="1"/>
<circle cx="506" cy="116" r="3.5" fill="#d7dbe0" stroke="none" stroke-width="2"/>
<circle cx="518" cy="116" r="3.5" fill="#d7dbe0" stroke="none" stroke-width="2"/>
<circle cx="530" cy="116" r="3.5" fill="#d7dbe0" stroke="none" stroke-width="2"/>
<rect x="550" y="110" width="354" height="12" fill="#e9ecef" rx="6"/>
<text x="556" y="119" font-size="8.5" fill="#8a9199" class="m">apeainthepod.com/maternity/tees-and-tanks.asp</text>
<rect x="506" y="136" width="398" height="22" fill="#e9ecef" rx="4"/>
<rect x="518" y="144" width="36" height="6" fill="#cfd4d9" rx="3"/>
<rect x="574" y="144" width="36" height="6" fill="#cfd4d9" rx="3"/>
<rect x="630" y="144" width="36" height="6" fill="#cfd4d9" rx="3"/>
<rect x="686" y="144" width="36" height="6" fill="#cfd4d9" rx="3"/>
<rect x="742" y="144" width="36" height="6" fill="#cfd4d9" rx="3"/>
<rect x="506" y="172" width="200" height="12" fill="#b9c0c7" rx="3"/>
<rect x="506" y="196" width="390" height="6" fill="#cfd4d9" rx="3"/>
<rect x="506" y="208" width="380" height="6" fill="#cfd4d9" rx="3"/>
<rect x="506" y="220" width="360" height="6" fill="#cfd4d9" rx="3"/>
<rect x="506" y="232" width="220" height="6" fill="#cfd4d9" rx="3"/>
<rect x="506" y="260" width="90" height="44" fill="#e9ecef" rx="4"/>
<rect x="506" y="310" width="60" height="6" fill="#cfd4d9" rx="3"/>
<rect x="572" y="310" width="24" height="6" fill="#b9c0c7" rx="3"/>
<rect x="606" y="260" width="90" height="44" fill="#e9ecef" rx="4"/>
<rect x="606" y="310" width="60" height="6" fill="#cfd4d9" rx="3"/>
<rect x="672" y="310" width="24" height="6" fill="#b9c0c7" rx="3"/>
<rect x="706" y="260" width="90" height="44" fill="#e9ecef" rx="4"/>
<rect x="706" y="310" width="60" height="6" fill="#cfd4d9" rx="3"/>
<rect x="772" y="310" width="24" height="6" fill="#b9c0c7" rx="3"/>
<rect x="806" y="260" width="90" height="44" fill="#e9ecef" rx="4"/>
<rect x="806" y="310" width="60" height="6" fill="#cfd4d9" rx="3"/>
<rect x="872" y="310" width="24" height="6" fill="#b9c0c7" rx="3"/>
<rect x="506" y="334" width="90" height="44" fill="#e9ecef" rx="4"/>
<rect x="506" y="384" width="60" height="6" fill="#cfd4d9" rx="3"/>
<rect x="572" y="384" width="24" height="6" fill="#b9c0c7" rx="3"/>
<rect x="606" y="334" width="90" height="44" fill="#e9ecef" rx="4"/>
<rect x="606" y="384" width="60" height="6" fill="#cfd4d9" rx="3"/>
<rect x="672" y="384" width="24" height="6" fill="#b9c0c7" rx="3"/>
<rect x="706" y="334" width="90" height="44" fill="#e9ecef" rx="4"/>
<rect x="706" y="384" width="60" height="6" fill="#cfd4d9" rx="3"/>
<rect x="772" y="384" width="24" height="6" fill="#b9c0c7" rx="3"/>
<rect x="806" y="334" width="90" height="44" fill="#e9ecef" rx="4"/>
<rect x="806" y="384" width="60" height="6" fill="#cfd4d9" rx="3"/>
<rect x="872" y="384" width="24" height="6" fill="#b9c0c7" rx="3"/>
<rect x="506" y="406" width="398" height="14" fill="#e9ecef" rx="4"/>
<rect x="500" y="166" width="410" height="78" fill="#e3ebf6" rx="6" stroke="#3d6fb4" stroke-width="2" opacity="0.85"/>
<rect x="818" y="174" width="78.7" height="18" fill="#3d6fb4" rx="9.0"/>
<text x="857.35" y="186.42" font-size="9.5" fill="#ffffff" text-anchor="middle" font-weight="700">kept as main</text>
<rect x="506" y="442" width="35.325" height="20" fill="#3d6fb4" rx="10.0"/>
<text x="523.663" y="455.78" font-size="10.5" fill="#ffffff" text-anchor="middle" font-weight="700">WMB</text>
<text x="572" y="456" font-size="11" fill="#565d66">same page kind</text>
<text x="506" y="478" font-size="10.5" fill="#8a9199" class="m">gold = heading + blurb; 2 of 809 blocks, 241 priced tees dropped</text>
<rect x="40" y="495" width="10" height="10" fill="#15663c" rx="2"/>
<text x="58" y="504" font-size="12.5"><tspan fill="#1b1f24" font-weight="700">Two policies, not two difficulties. </tspan><tspan fill="#565d66">This is why every cross-board number is reported as its own cell, never blended, and why the harness</tspan></text>
<text x="58" y="522" font-size="12.5" fill="#565d66">never trains on a board it reports.</text>
<!-- source: gold of WCXB dev-0643 (vendors/wcxb/data/wcxb.jsonl) and WMB 09157708-8786-480f-ac55-145501dd5c1c (vendors/wmb/data/blocks.jsonl) -->
</svg>